<mxfile host="app.diagrams.net" modified="2024-07-08T09:54:46.073Z" agent="Mozilla/5.0 (Windows NT 10.0; Win64; x64) AppleWebKit/537.36 (KHTML, like Gecko) Chrome/126.0.0.0 Safari/537.36" etag="AZgGNlnxsHfuvBiFpHQK" version="24.6.4" type="device">
  <diagram name="Puslapis-1" id="JmJh50FVwE73QNtyC5ao">
    <mxGraphModel dx="418" dy="372" grid="1" gridSize="10" guides="1" tooltips="1" connect="1" arrows="1" fold="1" page="1" pageScale="1" pageWidth="827" pageHeight="1169" math="0" shadow="0">
      <root>
        <mxCell id="0" />
        <mxCell id="1" parent="0" />
        <mxCell id="M_SHy7_IKCIAYiHoMvz7-1" value="enc 1. skills/gear?" style="rounded=0;whiteSpace=wrap;html=1;fillColor=#d5e8d4;strokeColor=#82b366;" parent="1" vertex="1">
          <mxGeometry y="350" width="100" height="20" as="geometry" />
        </mxCell>
        <mxCell id="M_SHy7_IKCIAYiHoMvz7-10" value="skills" style="rounded=0;whiteSpace=wrap;html=1;fillColor=#f8cecc;strokeColor=#b85450;" parent="1" vertex="1">
          <mxGeometry x="130" y="320" width="50" height="20" as="geometry" />
        </mxCell>
        <mxCell id="M_SHy7_IKCIAYiHoMvz7-11" value="enc 3 bandit encounter" style="rounded=0;whiteSpace=wrap;html=1;fillColor=#d5e8d4;strokeColor=#82b366;" parent="1" vertex="1">
          <mxGeometry x="195" y="370" width="130" height="20" as="geometry" />
        </mxCell>
        <mxCell id="M_SHy7_IKCIAYiHoMvz7-12" value="" style="endArrow=none;dashed=1;html=1;rounded=0;entryX=0;entryY=0.5;entryDx=0;entryDy=0;" parent="1" target="M_SHy7_IKCIAYiHoMvz7-10" edge="1">
          <mxGeometry width="50" height="50" relative="1" as="geometry">
            <mxPoint x="100" y="350" as="sourcePoint" />
            <mxPoint x="150" y="300" as="targetPoint" />
          </mxGeometry>
        </mxCell>
        <mxCell id="M_SHy7_IKCIAYiHoMvz7-13" value="" style="endArrow=none;dashed=1;html=1;rounded=0;entryX=-0.053;entryY=0.446;entryDx=0;entryDy=0;entryPerimeter=0;" parent="1" target="M_SHy7_IKCIAYiHoMvz7-44" edge="1">
          <mxGeometry width="50" height="50" relative="1" as="geometry">
            <mxPoint x="100" y="370" as="sourcePoint" />
            <mxPoint x="120" y="380" as="targetPoint" />
          </mxGeometry>
        </mxCell>
        <mxCell id="M_SHy7_IKCIAYiHoMvz7-15" value="enc 2 bandit encounter" style="rounded=0;whiteSpace=wrap;html=1;fontSize=8;fillColor=#d5e8d4;strokeColor=#82b366;" parent="1" vertex="1">
          <mxGeometry x="210" y="320" width="100" height="20" as="geometry" />
        </mxCell>
        <mxCell id="M_SHy7_IKCIAYiHoMvz7-17" value="" style="endArrow=none;dashed=1;html=1;rounded=0;exitX=1;exitY=0.5;exitDx=0;exitDy=0;" parent="1" source="M_SHy7_IKCIAYiHoMvz7-10" edge="1">
          <mxGeometry width="50" height="50" relative="1" as="geometry">
            <mxPoint x="230" y="340" as="sourcePoint" />
            <mxPoint x="210" y="330" as="targetPoint" />
          </mxGeometry>
        </mxCell>
        <mxCell id="M_SHy7_IKCIAYiHoMvz7-23" value="fight" style="rounded=0;whiteSpace=wrap;html=1;fillColor=#f8cecc;strokeColor=#b85450;" parent="1" vertex="1">
          <mxGeometry x="360" y="290" width="30" height="20" as="geometry" />
        </mxCell>
        <mxCell id="M_SHy7_IKCIAYiHoMvz7-24" value="pay" style="rounded=0;whiteSpace=wrap;html=1;fillColor=#dae8fc;strokeColor=#6c8ebf;" parent="1" vertex="1">
          <mxGeometry x="360" y="340" width="30" height="20" as="geometry" />
        </mxCell>
        <mxCell id="M_SHy7_IKCIAYiHoMvz7-25" value="" style="endArrow=none;dashed=1;html=1;rounded=0;entryX=0;entryY=0.5;entryDx=0;entryDy=0;exitX=1;exitY=0.5;exitDx=0;exitDy=0;" parent="1" source="M_SHy7_IKCIAYiHoMvz7-15" target="M_SHy7_IKCIAYiHoMvz7-23" edge="1">
          <mxGeometry width="50" height="50" relative="1" as="geometry">
            <mxPoint x="360" y="330" as="sourcePoint" />
            <mxPoint x="390" y="310" as="targetPoint" />
          </mxGeometry>
        </mxCell>
        <mxCell id="M_SHy7_IKCIAYiHoMvz7-26" value="" style="endArrow=none;dashed=1;html=1;rounded=0;entryX=0;entryY=0.5;entryDx=0;entryDy=0;exitX=1;exitY=0.5;exitDx=0;exitDy=0;" parent="1" source="M_SHy7_IKCIAYiHoMvz7-15" target="M_SHy7_IKCIAYiHoMvz7-24" edge="1">
          <mxGeometry width="50" height="50" relative="1" as="geometry">
            <mxPoint x="360" y="370" as="sourcePoint" />
            <mxPoint x="380" y="350" as="targetPoint" />
          </mxGeometry>
        </mxCell>
        <mxCell id="M_SHy7_IKCIAYiHoMvz7-27" value="" style="endArrow=none;dashed=1;html=1;rounded=0;entryX=0.5;entryY=1;entryDx=0;entryDy=0;exitX=1;exitY=0.5;exitDx=0;exitDy=0;" parent="1" source="M_SHy7_IKCIAYiHoMvz7-11" target="M_SHy7_IKCIAYiHoMvz7-23" edge="1">
          <mxGeometry width="50" height="50" relative="1" as="geometry">
            <mxPoint x="230" y="390" as="sourcePoint" />
            <mxPoint x="250" y="370" as="targetPoint" />
          </mxGeometry>
        </mxCell>
        <mxCell id="M_SHy7_IKCIAYiHoMvz7-28" value="enc 4. help stranger?" style="rounded=0;whiteSpace=wrap;html=1;fillColor=#d5e8d4;strokeColor=#82b366;fontSize=10;" parent="1" vertex="1">
          <mxGeometry x="430" y="350" width="100" height="20" as="geometry" />
        </mxCell>
        <mxCell id="M_SHy7_IKCIAYiHoMvz7-29" value="" style="endArrow=none;dashed=1;html=1;rounded=0;entryX=0;entryY=0.5;entryDx=0;entryDy=0;exitX=1;exitY=0.5;exitDx=0;exitDy=0;" parent="1" source="M_SHy7_IKCIAYiHoMvz7-47" target="M_SHy7_IKCIAYiHoMvz7-28" edge="1">
          <mxGeometry width="50" height="50" relative="1" as="geometry">
            <mxPoint x="340" y="390" as="sourcePoint" />
            <mxPoint x="280" y="340" as="targetPoint" />
          </mxGeometry>
        </mxCell>
        <mxCell id="M_SHy7_IKCIAYiHoMvz7-30" value="" style="endArrow=none;dashed=1;html=1;rounded=0;entryX=0;entryY=0.5;entryDx=0;entryDy=0;exitX=1.132;exitY=0.573;exitDx=0;exitDy=0;exitPerimeter=0;" parent="1" source="M_SHy7_IKCIAYiHoMvz7-23" target="M_SHy7_IKCIAYiHoMvz7-28" edge="1">
          <mxGeometry width="50" height="50" relative="1" as="geometry">
            <mxPoint x="480" y="310" as="sourcePoint" />
            <mxPoint x="500" y="290" as="targetPoint" />
          </mxGeometry>
        </mxCell>
        <mxCell id="M_SHy7_IKCIAYiHoMvz7-31" value="" style="endArrow=none;dashed=1;html=1;rounded=0;exitX=1.12;exitY=0.504;exitDx=0;exitDy=0;exitPerimeter=0;entryX=-0.032;entryY=0.355;entryDx=0;entryDy=0;entryPerimeter=0;" parent="1" source="M_SHy7_IKCIAYiHoMvz7-24" target="M_SHy7_IKCIAYiHoMvz7-28" edge="1">
          <mxGeometry width="50" height="50" relative="1" as="geometry">
            <mxPoint x="480" y="350" as="sourcePoint" />
            <mxPoint x="520" y="360" as="targetPoint" />
          </mxGeometry>
        </mxCell>
        <mxCell id="M_SHy7_IKCIAYiHoMvz7-32" value="yes" style="rounded=0;whiteSpace=wrap;html=1;fillColor=#f8cecc;strokeColor=#b85450;" parent="1" vertex="1">
          <mxGeometry x="550" y="330" width="30" height="20" as="geometry" />
        </mxCell>
        <mxCell id="M_SHy7_IKCIAYiHoMvz7-33" value="no" style="rounded=0;whiteSpace=wrap;html=1;fillColor=#dae8fc;strokeColor=#6c8ebf;" parent="1" vertex="1">
          <mxGeometry x="550" y="390" width="30" height="20" as="geometry" />
        </mxCell>
        <mxCell id="M_SHy7_IKCIAYiHoMvz7-34" value="" style="endArrow=none;dashed=1;html=1;rounded=0;entryX=0;entryY=0.5;entryDx=0;entryDy=0;exitX=1.037;exitY=0.355;exitDx=0;exitDy=0;exitPerimeter=0;" parent="1" source="M_SHy7_IKCIAYiHoMvz7-28" target="M_SHy7_IKCIAYiHoMvz7-32" edge="1">
          <mxGeometry width="50" height="50" relative="1" as="geometry">
            <mxPoint x="620" y="360" as="sourcePoint" />
            <mxPoint x="650" y="340" as="targetPoint" />
          </mxGeometry>
        </mxCell>
        <mxCell id="M_SHy7_IKCIAYiHoMvz7-35" value="" style="endArrow=none;dashed=1;html=1;rounded=0;entryX=0;entryY=0.5;entryDx=0;entryDy=0;exitX=1.037;exitY=0.555;exitDx=0;exitDy=0;exitPerimeter=0;" parent="1" source="M_SHy7_IKCIAYiHoMvz7-28" target="M_SHy7_IKCIAYiHoMvz7-33" edge="1">
          <mxGeometry width="50" height="50" relative="1" as="geometry">
            <mxPoint x="620" y="360" as="sourcePoint" />
            <mxPoint x="640" y="380" as="targetPoint" />
          </mxGeometry>
        </mxCell>
        <mxCell id="M_SHy7_IKCIAYiHoMvz7-38" value="enc 5 find wife task" style="rounded=0;whiteSpace=wrap;html=1;fontSize=8;fillColor=#d5e8d4;strokeColor=#82b366;" parent="1" vertex="1">
          <mxGeometry x="600" y="330" width="100" height="20" as="geometry" />
        </mxCell>
        <mxCell id="M_SHy7_IKCIAYiHoMvz7-39" value="" style="endArrow=none;dashed=1;html=1;rounded=0;entryX=-0.03;entryY=0.504;entryDx=0;entryDy=0;exitX=1.102;exitY=0.504;exitDx=0;exitDy=0;exitPerimeter=0;entryPerimeter=0;" parent="1" source="M_SHy7_IKCIAYiHoMvz7-32" target="M_SHy7_IKCIAYiHoMvz7-38" edge="1">
          <mxGeometry width="50" height="50" relative="1" as="geometry">
            <mxPoint x="570" y="317" as="sourcePoint" />
            <mxPoint x="596" y="300" as="targetPoint" />
          </mxGeometry>
        </mxCell>
        <mxCell id="M_SHy7_IKCIAYiHoMvz7-40" value="calm" style="rounded=0;whiteSpace=wrap;html=1;fillColor=#f8cecc;strokeColor=#b85450;" parent="1" vertex="1">
          <mxGeometry x="730" y="310" width="40" height="20" as="geometry" />
        </mxCell>
        <mxCell id="M_SHy7_IKCIAYiHoMvz7-41" value="threat" style="rounded=0;whiteSpace=wrap;html=1;fillColor=#dae8fc;strokeColor=#6c8ebf;" parent="1" vertex="1">
          <mxGeometry x="730" y="360" width="40" height="20" as="geometry" />
        </mxCell>
        <mxCell id="M_SHy7_IKCIAYiHoMvz7-42" value="" style="endArrow=none;dashed=1;html=1;rounded=0;entryX=0;entryY=0.5;entryDx=0;entryDy=0;exitX=1.035;exitY=0.504;exitDx=0;exitDy=0;exitPerimeter=0;" parent="1" source="M_SHy7_IKCIAYiHoMvz7-38" target="M_SHy7_IKCIAYiHoMvz7-40" edge="1">
          <mxGeometry width="50" height="50" relative="1" as="geometry">
            <mxPoint x="680" y="337" as="sourcePoint" />
            <mxPoint x="836" y="320" as="targetPoint" />
          </mxGeometry>
        </mxCell>
        <mxCell id="M_SHy7_IKCIAYiHoMvz7-43" value="" style="endArrow=none;dashed=1;html=1;rounded=0;entryX=0;entryY=0.5;entryDx=0;entryDy=0;exitX=1;exitY=0.5;exitDx=0;exitDy=0;" parent="1" source="M_SHy7_IKCIAYiHoMvz7-38" target="M_SHy7_IKCIAYiHoMvz7-41" edge="1">
          <mxGeometry width="50" height="50" relative="1" as="geometry">
            <mxPoint x="680" y="341" as="sourcePoint" />
            <mxPoint x="826" y="360" as="targetPoint" />
          </mxGeometry>
        </mxCell>
        <mxCell id="M_SHy7_IKCIAYiHoMvz7-44" value="equipment" style="rounded=0;whiteSpace=wrap;html=1;fontSize=10;fillColor=#dae8fc;strokeColor=#6c8ebf;" parent="1" vertex="1">
          <mxGeometry x="130" y="370" width="50" height="20" as="geometry" />
        </mxCell>
        <mxCell id="M_SHy7_IKCIAYiHoMvz7-46" value="" style="endArrow=none;dashed=1;html=1;rounded=0;exitX=1;exitY=0.5;exitDx=0;exitDy=0;entryX=0;entryY=0.5;entryDx=0;entryDy=0;" parent="1" source="M_SHy7_IKCIAYiHoMvz7-44" target="M_SHy7_IKCIAYiHoMvz7-11" edge="1">
          <mxGeometry width="50" height="50" relative="1" as="geometry">
            <mxPoint x="175" y="359.8" as="sourcePoint" />
            <mxPoint x="195" y="359.8" as="targetPoint" />
          </mxGeometry>
        </mxCell>
        <mxCell id="M_SHy7_IKCIAYiHoMvz7-47" value="leave alone" style="rounded=0;whiteSpace=wrap;html=1;fillColor=#dae8fc;strokeColor=#6c8ebf;" parent="1" vertex="1">
          <mxGeometry x="340" y="380" width="70" height="20" as="geometry" />
        </mxCell>
        <mxCell id="M_SHy7_IKCIAYiHoMvz7-48" value="" style="endArrow=none;dashed=1;html=1;rounded=0;exitX=0;exitY=0.5;exitDx=0;exitDy=0;entryX=1;entryY=0.5;entryDx=0;entryDy=0;" parent="1" source="M_SHy7_IKCIAYiHoMvz7-47" target="M_SHy7_IKCIAYiHoMvz7-11" edge="1">
          <mxGeometry width="50" height="50" relative="1" as="geometry">
            <mxPoint x="544" y="371" as="sourcePoint" />
            <mxPoint x="450" y="400" as="targetPoint" />
          </mxGeometry>
        </mxCell>
        <mxCell id="M_SHy7_IKCIAYiHoMvz7-50" value="enc 6 beast approaches (wife friendly)" style="rounded=0;whiteSpace=wrap;html=1;fontSize=8;fillColor=#d5e8d4;strokeColor=#82b366;" parent="1" vertex="1">
          <mxGeometry x="800" y="310" width="100" height="20" as="geometry" />
        </mxCell>
        <mxCell id="M_SHy7_IKCIAYiHoMvz7-51" value="" style="endArrow=none;dashed=1;html=1;rounded=0;entryX=0;entryY=0.5;entryDx=0;entryDy=0;exitX=1;exitY=0.5;exitDx=0;exitDy=0;" parent="1" source="M_SHy7_IKCIAYiHoMvz7-40" target="M_SHy7_IKCIAYiHoMvz7-50" edge="1">
          <mxGeometry width="50" height="50" relative="1" as="geometry">
            <mxPoint x="784" y="320" as="sourcePoint" />
            <mxPoint x="810" y="300" as="targetPoint" />
          </mxGeometry>
        </mxCell>
        <mxCell id="M_SHy7_IKCIAYiHoMvz7-52" value="ask wife for help" style="rounded=0;whiteSpace=wrap;html=1;fillColor=#dae8fc;strokeColor=#6c8ebf;fontSize=9;" parent="1" vertex="1">
          <mxGeometry x="930" y="290" width="70" height="20" as="geometry" />
        </mxCell>
        <mxCell id="M_SHy7_IKCIAYiHoMvz7-53" value="tell wife to run" style="rounded=0;whiteSpace=wrap;html=1;fillColor=#f8cecc;strokeColor=#b85450;fontSize=10;" parent="1" vertex="1">
          <mxGeometry x="926" y="330" width="74" height="20" as="geometry" />
        </mxCell>
        <mxCell id="M_SHy7_IKCIAYiHoMvz7-54" value="" style="endArrow=none;dashed=1;html=1;rounded=0;entryX=0;entryY=0.5;entryDx=0;entryDy=0;exitX=1.035;exitY=0.504;exitDx=0;exitDy=0;exitPerimeter=0;" parent="1" target="M_SHy7_IKCIAYiHoMvz7-52" edge="1">
          <mxGeometry width="50" height="50" relative="1" as="geometry">
            <mxPoint x="900" y="320" as="sourcePoint" />
            <mxPoint x="1032" y="300" as="targetPoint" />
          </mxGeometry>
        </mxCell>
        <mxCell id="M_SHy7_IKCIAYiHoMvz7-55" value="" style="endArrow=none;dashed=1;html=1;rounded=0;entryX=0;entryY=0.5;entryDx=0;entryDy=0;exitX=1;exitY=0.5;exitDx=0;exitDy=0;" parent="1" source="M_SHy7_IKCIAYiHoMvz7-50" target="M_SHy7_IKCIAYiHoMvz7-53" edge="1">
          <mxGeometry width="50" height="50" relative="1" as="geometry">
            <mxPoint x="910" y="330" as="sourcePoint" />
            <mxPoint x="936" y="310" as="targetPoint" />
          </mxGeometry>
        </mxCell>
        <mxCell id="M_SHy7_IKCIAYiHoMvz7-59" value="" style="endArrow=none;dashed=1;html=1;rounded=0;entryX=0;entryY=0.5;entryDx=0;entryDy=0;exitX=1;exitY=0.5;exitDx=0;exitDy=0;" parent="1" source="M_SHy7_IKCIAYiHoMvz7-52" target="M_SHy7_IKCIAYiHoMvz7-63" edge="1">
          <mxGeometry width="50" height="50" relative="1" as="geometry">
            <mxPoint x="974" y="290" as="sourcePoint" />
            <mxPoint x="1000" y="300" as="targetPoint" />
          </mxGeometry>
        </mxCell>
        <mxCell id="M_SHy7_IKCIAYiHoMvz7-60" value="enc 7 beast approaches (wife hostile)" style="rounded=0;whiteSpace=wrap;html=1;fontSize=8;fillColor=#d5e8d4;strokeColor=#82b366;" parent="1" vertex="1">
          <mxGeometry x="800" y="360" width="100" height="20" as="geometry" />
        </mxCell>
        <mxCell id="M_SHy7_IKCIAYiHoMvz7-61" value="" style="endArrow=none;dashed=1;html=1;rounded=0;entryX=0;entryY=0.5;entryDx=0;entryDy=0;exitX=1;exitY=0.5;exitDx=0;exitDy=0;" parent="1" source="M_SHy7_IKCIAYiHoMvz7-41" target="M_SHy7_IKCIAYiHoMvz7-60" edge="1">
          <mxGeometry width="50" height="50" relative="1" as="geometry">
            <mxPoint x="790" y="360" as="sourcePoint" />
            <mxPoint x="820" y="360" as="targetPoint" />
          </mxGeometry>
        </mxCell>
        <mxCell id="M_SHy7_IKCIAYiHoMvz7-63" value="enc 8 beast fight, with help" style="rounded=0;whiteSpace=wrap;html=1;fontSize=8;fillColor=#d5e8d4;strokeColor=#82b366;" parent="1" vertex="1">
          <mxGeometry x="1060" y="290" width="100" height="20" as="geometry" />
        </mxCell>
        <mxCell id="M_SHy7_IKCIAYiHoMvz7-64" value="" style="endArrow=none;dashed=1;html=1;rounded=0;entryX=0;entryY=0.5;entryDx=0;entryDy=0;exitX=1;exitY=0.5;exitDx=0;exitDy=0;" parent="1" source="M_SHy7_IKCIAYiHoMvz7-33" target="tMUAykj3ZuGnLFSZ3MLH-4" edge="1">
          <mxGeometry width="50" height="50" relative="1" as="geometry">
            <mxPoint x="540" y="400" as="sourcePoint" />
            <mxPoint x="1270" y="399.67" as="targetPoint" />
          </mxGeometry>
        </mxCell>
        <mxCell id="M_SHy7_IKCIAYiHoMvz7-74" value="enc 10 bring wife to husband" style="rounded=0;whiteSpace=wrap;html=1;fontSize=8;fillColor=#d5e8d4;strokeColor=#82b366;" parent="1" vertex="1">
          <mxGeometry x="1210" y="310" width="100" height="20" as="geometry" />
        </mxCell>
        <mxCell id="M_SHy7_IKCIAYiHoMvz7-75" value="" style="endArrow=none;dashed=1;html=1;rounded=0;exitX=1;exitY=0.5;exitDx=0;exitDy=0;entryX=0;entryY=0.5;entryDx=0;entryDy=0;" parent="1" source="M_SHy7_IKCIAYiHoMvz7-63" target="M_SHy7_IKCIAYiHoMvz7-74" edge="1">
          <mxGeometry width="50" height="50" relative="1" as="geometry">
            <mxPoint x="1270" y="330" as="sourcePoint" />
            <mxPoint x="1330" y="340" as="targetPoint" />
          </mxGeometry>
        </mxCell>
        <mxCell id="M_SHy7_IKCIAYiHoMvz7-77" value="" style="endArrow=none;dashed=1;html=1;rounded=0;exitX=1;exitY=0;exitDx=0;exitDy=0;entryX=0;entryY=0.5;entryDx=0;entryDy=0;" parent="1" source="M_SHy7_IKCIAYiHoMvz7-60" target="M_SHy7_IKCIAYiHoMvz7-52" edge="1">
          <mxGeometry width="50" height="50" relative="1" as="geometry">
            <mxPoint x="910" y="330" as="sourcePoint" />
            <mxPoint x="930" y="300" as="targetPoint" />
          </mxGeometry>
        </mxCell>
        <mxCell id="M_SHy7_IKCIAYiHoMvz7-78" value="fight alone" style="rounded=0;whiteSpace=wrap;html=1;fillColor=#f8cecc;strokeColor=#b85450;fontSize=10;" parent="1" vertex="1">
          <mxGeometry x="926" y="360" width="74" height="20" as="geometry" />
        </mxCell>
        <mxCell id="M_SHy7_IKCIAYiHoMvz7-79" value="" style="endArrow=none;dashed=1;html=1;rounded=0;entryX=0;entryY=0.5;entryDx=0;entryDy=0;exitX=1;exitY=0.5;exitDx=0;exitDy=0;" parent="1" source="M_SHy7_IKCIAYiHoMvz7-60" target="M_SHy7_IKCIAYiHoMvz7-78" edge="1">
          <mxGeometry width="50" height="50" relative="1" as="geometry">
            <mxPoint x="910" y="370" as="sourcePoint" />
            <mxPoint x="940" y="320" as="targetPoint" />
          </mxGeometry>
        </mxCell>
        <mxCell id="lEKjZ4cKfQlM-vuqf0g_-1" value="enc 9 beast fight, alone" style="rounded=0;whiteSpace=wrap;html=1;fontSize=8;fillColor=#d5e8d4;strokeColor=#82b366;" parent="1" vertex="1">
          <mxGeometry x="1060" y="350" width="100" height="20" as="geometry" />
        </mxCell>
        <mxCell id="lEKjZ4cKfQlM-vuqf0g_-2" value="" style="endArrow=none;dashed=1;html=1;rounded=0;entryX=0;entryY=0.5;entryDx=0;entryDy=0;exitX=1;exitY=0.5;exitDx=0;exitDy=0;" parent="1" source="M_SHy7_IKCIAYiHoMvz7-53" target="lEKjZ4cKfQlM-vuqf0g_-1" edge="1">
          <mxGeometry width="50" height="50" relative="1" as="geometry">
            <mxPoint x="1020" y="350" as="sourcePoint" />
            <mxPoint x="1046" y="350" as="targetPoint" />
          </mxGeometry>
        </mxCell>
        <mxCell id="lEKjZ4cKfQlM-vuqf0g_-3" value="" style="endArrow=none;dashed=1;html=1;rounded=0;entryX=0;entryY=0.5;entryDx=0;entryDy=0;exitX=1;exitY=0.5;exitDx=0;exitDy=0;" parent="1" source="M_SHy7_IKCIAYiHoMvz7-78" target="lEKjZ4cKfQlM-vuqf0g_-1" edge="1">
          <mxGeometry width="50" height="50" relative="1" as="geometry">
            <mxPoint x="1010" y="350" as="sourcePoint" />
            <mxPoint x="1070" y="370" as="targetPoint" />
          </mxGeometry>
        </mxCell>
        <mxCell id="lEKjZ4cKfQlM-vuqf0g_-4" value="enc 11 return to husband" style="rounded=0;whiteSpace=wrap;html=1;fontSize=8;fillColor=#d5e8d4;strokeColor=#82b366;" parent="1" vertex="1">
          <mxGeometry x="1210" y="350" width="100" height="20" as="geometry" />
        </mxCell>
        <mxCell id="lEKjZ4cKfQlM-vuqf0g_-5" value="" style="endArrow=none;dashed=1;html=1;rounded=0;exitX=1;exitY=0.5;exitDx=0;exitDy=0;entryX=0;entryY=0.5;entryDx=0;entryDy=0;" parent="1" source="lEKjZ4cKfQlM-vuqf0g_-1" target="lEKjZ4cKfQlM-vuqf0g_-4" edge="1">
          <mxGeometry width="50" height="50" relative="1" as="geometry">
            <mxPoint x="1170" y="360" as="sourcePoint" />
            <mxPoint x="1220" y="380" as="targetPoint" />
          </mxGeometry>
        </mxCell>
        <mxCell id="lEKjZ4cKfQlM-vuqf0g_-8" value="" style="endArrow=none;dashed=1;html=1;rounded=0;exitX=1;exitY=0.5;exitDx=0;exitDy=0;entryX=0;entryY=0.5;entryDx=0;entryDy=0;" parent="1" source="lEKjZ4cKfQlM-vuqf0g_-4" target="tMUAykj3ZuGnLFSZ3MLH-4" edge="1">
          <mxGeometry width="50" height="50" relative="1" as="geometry">
            <mxPoint x="1180" y="380" as="sourcePoint" />
            <mxPoint x="1230" y="380" as="targetPoint" />
          </mxGeometry>
        </mxCell>
        <mxCell id="tMUAykj3ZuGnLFSZ3MLH-1" value="" style="endArrow=none;dashed=1;html=1;rounded=0;exitX=1;exitY=0.5;exitDx=0;exitDy=0;entryX=0;entryY=0.5;entryDx=0;entryDy=0;" edge="1" parent="1" source="M_SHy7_IKCIAYiHoMvz7-74" target="tMUAykj3ZuGnLFSZ3MLH-3">
          <mxGeometry width="50" height="50" relative="1" as="geometry">
            <mxPoint x="1380" y="420" as="sourcePoint" />
            <mxPoint x="1360" y="440" as="targetPoint" />
          </mxGeometry>
        </mxCell>
        <mxCell id="tMUAykj3ZuGnLFSZ3MLH-2" value="" style="endArrow=none;dashed=1;html=1;rounded=0;entryX=0;entryY=0.5;entryDx=0;entryDy=0;" edge="1" parent="1" target="tMUAykj3ZuGnLFSZ3MLH-4">
          <mxGeometry width="50" height="50" relative="1" as="geometry">
            <mxPoint x="1310" y="320" as="sourcePoint" />
            <mxPoint x="1440" y="440" as="targetPoint" />
          </mxGeometry>
        </mxCell>
        <mxCell id="tMUAykj3ZuGnLFSZ3MLH-3" value="rest at clients" style="rounded=0;whiteSpace=wrap;html=1;fillColor=#dae8fc;strokeColor=#6c8ebf;fontSize=10;" vertex="1" parent="1">
          <mxGeometry x="1336" y="350" width="74" height="20" as="geometry" />
        </mxCell>
        <mxCell id="tMUAykj3ZuGnLFSZ3MLH-4" value="rest at tavern" style="rounded=0;whiteSpace=wrap;html=1;fillColor=#dae8fc;strokeColor=#6c8ebf;fontSize=10;" vertex="1" parent="1">
          <mxGeometry x="1336" y="390" width="74" height="20" as="geometry" />
        </mxCell>
        <mxCell id="tMUAykj3ZuGnLFSZ3MLH-7" value="enc 21 xxxxxxxx" style="rounded=0;whiteSpace=wrap;html=1;fontSize=8;fillColor=#d5e8d4;strokeColor=#82b366;" vertex="1" parent="1">
          <mxGeometry x="1430" y="370" width="100" height="20" as="geometry" />
        </mxCell>
        <mxCell id="tMUAykj3ZuGnLFSZ3MLH-8" value="" style="endArrow=none;dashed=1;html=1;rounded=0;exitX=1;exitY=0.5;exitDx=0;exitDy=0;entryX=0;entryY=0.5;entryDx=0;entryDy=0;" edge="1" parent="1" source="tMUAykj3ZuGnLFSZ3MLH-3" target="tMUAykj3ZuGnLFSZ3MLH-7">
          <mxGeometry width="50" height="50" relative="1" as="geometry">
            <mxPoint x="1320" y="330" as="sourcePoint" />
            <mxPoint x="1346" y="370" as="targetPoint" />
          </mxGeometry>
        </mxCell>
        <mxCell id="tMUAykj3ZuGnLFSZ3MLH-9" value="" style="endArrow=none;dashed=1;html=1;rounded=0;exitX=1;exitY=0.5;exitDx=0;exitDy=0;entryX=0;entryY=0.5;entryDx=0;entryDy=0;" edge="1" parent="1" source="tMUAykj3ZuGnLFSZ3MLH-4" target="tMUAykj3ZuGnLFSZ3MLH-7">
          <mxGeometry width="50" height="50" relative="1" as="geometry">
            <mxPoint x="1420" y="370" as="sourcePoint" />
            <mxPoint x="1440" y="390" as="targetPoint" />
          </mxGeometry>
        </mxCell>
      </root>
    </mxGraphModel>
  </diagram>
</mxfile>
